#N canvas 255 28 979 641 10;
#N canvas 437 213 721 410 audioin 0;
#X obj 293 97 fiddle~;
#X obj 319 131 unpack;
#X obj 319 220 line;
#X floatatom 319 161 5 0 0 0 - - -, f 5;
#X obj 86 97 fiddle~;
#X obj 112 131 unpack;
#X obj 112 225 line;
#X floatatom 112 161 5 0 0 0 - - -, f 5;
#X obj 112 332 s hl1;
#X obj 211 123 inlet;
#X obj 112 285 spigot;
#X obj 319 273 spigot;
#X obj 319 328 s hl2;
#X obj 211 149 tgl 15 0 empty empty empty 17 7 0 10 -262144 -1 -1 1
1;
#X msg 112 188 \$1 1200;
#X obj 86 16 adc~ 1 2;
#X msg 319 190 \$1 1200;
#X connect 0 2 1 0;
#X connect 1 0 3 0;
#X connect 2 0 11 0;
#X connect 3 0 16 0;
#X connect 4 2 5 0;
#X connect 5 0 7 0;
#X connect 6 0 10 0;
#X connect 7 0 14 0;
#X connect 9 0 13 0;
#X connect 10 0 8 0;
#X connect 11 0 12 0;
#X connect 13 0 10 1;
#X connect 13 0 11 1;
#X connect 14 0 6 0;
#X connect 15 0 4 0;
#X connect 15 1 0 0;
#X connect 16 0 2 0;
#X restore 30 137 pd audioin;
#X obj 202 194 vsl 15 128 0 100 0 0 empty hl1 hl1 0 -9 0 10 -262144
-1 -1 0 1;
#X obj 476 205 vsl 15 128 0 100 0 0 empty hl2 hl2 0 -9 0 10 -262144
-1 -1 0 1;
#N canvas 122 3 602 567 dmx 0;
#X obj 348 167 vsl 15 128 0 255 0 0 empty empty empty 0 -9 0 10 -262144
-1 -1 0 1;
#X obj 236 111 cnv 15 40 40 empty inr1 empty 20 12 0 14 -1 -262144
0;
#X obj 365 167 vsl 15 128 0 255 0 0 empty empty empty 0 -9 0 10 -262144
-1 -1 598 1;
#X obj 385 167 vsl 15 128 0 255 0 0 empty empty empty 0 -9 0 10 -262144
-1 -1 0 1;
#X obj 179 110 cnv 15 40 40 empty inr2 empty 20 12 0 14 -143491 -262144
0;
#N canvas 87 81 550 400 inr1 0;
#X obj 75 21 inlet;
#X obj 150 18 inlet;
#X obj 222 19 inlet;
#X msg 87 217 back;
#X msg 87 241 label;
#X msg 49 217 bang;
#N canvas 15 207 606 448 RGB_____________ 0;
#X obj 97 56 inlet;
#X obj 262 53 inlet;
#X obj 339 55 inlet;
#X obj 405 56 inlet;
#X obj 97 270 bang;
#X msg 77 295 0;
#X msg 104 295 1;
#X obj 146 268 bang;
#X msg 132 295 0;
#X msg 160 295 1;
#X obj 265 313 spigot;
#X obj 312 313 spigot;
#X obj 249 385 outlet;
#X text 93 33 select;
#X text 267 28 red;
#X text 337 30 green;
#X text 409 30 blue;
#X obj 405 102 t b f;
#X obj 339 160 +;
#X obj 339 185 t b f;
#X obj 339 216 +;
#X obj 296 385 outlet;
#X obj 28 180 loadbang;
#X obj 296 361 f;
#X obj 249 361 f;
#X obj 262 79 * -65536;
#X obj 339 80 * -256;
#X obj 405 80 * -1;
#X obj 339 247 - 1;
#X obj 97 135 route back label bang;
#X obj 235 168 t b b b;
#X connect 0 0 29 0;
#X connect 1 0 25 0;
#X connect 2 0 26 0;
#X connect 3 0 27 0;
#X connect 4 0 5 0;
#X connect 4 0 6 0;
#X connect 5 0 11 1;
#X connect 6 0 10 1;
#X connect 7 0 8 0;
#X connect 7 0 9 0;
#X connect 8 0 10 1;
#X connect 9 0 11 1;
#X connect 10 0 24 1;
#X connect 11 0 23 1;
#X connect 17 0 18 0;
#X connect 17 1 18 1;
#X connect 18 0 19 0;
#X connect 19 0 20 0;
#X connect 19 1 20 1;
#X connect 20 0 28 0;
#X connect 22 0 6 0;
#X connect 23 0 21 0;
#X connect 24 0 12 0;
#X connect 25 0 20 0;
#X connect 26 0 18 0;
#X connect 27 0 17 0;
#X connect 28 0 11 0;
#X connect 28 0 10 0;
#X connect 29 0 4 0;
#X connect 29 1 7 0;
#X connect 29 2 30 0;
#X connect 30 0 24 0;
#X connect 30 1 23 0;
#X connect 30 2 28 0;
#X restore 87 303 pd RGB_____________;
#X floatatom 129 247 3 0 255 0 - - -, f 3;
#X floatatom 172 247 3 0 255 0 - - -, f 3;
#X floatatom 215 248 3 0 255 0 - - -, f 3;
#X text 98 192 RGB-colors;
#X text 129 229 red;
#X text 165 228 green;
#X text 213 228 blue;
#X obj 87 333 pack 0 0;
#X msg 87 366 \; inr1 color \$1 \$2;
#X obj 41 76 t f b;
#X obj 41 135 i;
#X obj 139 74 t f b;
#X obj 139 133 i;
#X obj 241 72 t f b;
#X obj 241 131 i;
#X msg 221 303 1 \$1;
#X msg 263 303 2 \$1;
#X msg 301 302 3 \$1;
#X obj 249 336 outlet;
#X connect 0 0 16 0;
#X connect 1 0 18 0;
#X connect 2 0 20 0;
#X connect 3 0 6 0;
#X connect 4 0 6 0;
#X connect 5 0 6 0;
#X connect 6 0 14 0;
#X connect 6 1 14 1;
#X connect 7 0 6 1;
#X connect 7 0 22 0;
#X connect 8 0 6 2;
#X connect 8 0 23 0;
#X connect 9 0 6 3;
#X connect 9 0 24 0;
#X connect 14 0 15 0;
#X connect 16 0 17 0;
#X connect 16 1 6 0;
#X connect 17 0 7 0;
#X connect 18 0 19 0;
#X connect 18 1 6 0;
#X connect 19 0 8 0;
#X connect 20 0 21 0;
#X connect 20 1 6 0;
#X connect 21 0 9 0;
#X connect 22 0 25 0;
#X connect 23 0 25 0;
#X connect 24 0 25 0;
#X restore 348 315 pd inr1;
#X obj 419 167 vsl 15 128 0 255 0 0 empty empty empty 0 -9 0 10 -262144
-1 -1 0 1;
#X obj 436 167 vsl 15 128 0 255 0 0 empty empty empty 0 -9 0 10 -262144
-1 -1 0 1;
#X obj 459 166 vsl 15 128 0 255 0 0 empty empty empty 0 -9 0 10 -262144
-1 -1 0 1;
#N canvas 557 127 550 400 inr2 0;
#X obj 85 31 inlet;
#X obj 160 28 inlet;
#X obj 232 29 inlet;
#X msg 97 227 back;
#X msg 97 251 label;
#X msg 59 227 bang;
#N canvas 15 207 606 448 RGB_____________ 0;
#X obj 97 56 inlet;
#X obj 262 53 inlet;
#X obj 339 55 inlet;
#X obj 405 56 inlet;
#X obj 97 270 bang;
#X msg 77 295 0;
#X msg 104 295 1;
#X obj 146 268 bang;
#X msg 132 295 0;
#X msg 160 295 1;
#X obj 265 313 spigot;
#X obj 312 313 spigot;
#X obj 249 385 outlet;
#X text 93 33 select;
#X text 267 28 red;
#X text 337 30 green;
#X text 409 30 blue;
#X obj 405 102 t b f;
#X obj 339 160 +;
#X obj 339 185 t b f;
#X obj 339 216 +;
#X obj 296 385 outlet;
#X obj 28 180 loadbang;
#X obj 296 361 f;
#X obj 249 361 f;
#X obj 262 79 * -65536;
#X obj 339 80 * -256;
#X obj 405 80 * -1;
#X obj 339 247 - 1;
#X obj 97 135 route back label bang;
#X obj 235 168 t b b b;
#X connect 0 0 29 0;
#X connect 1 0 25 0;
#X connect 2 0 26 0;
#X connect 3 0 27 0;
#X connect 4 0 5 0;
#X connect 4 0 6 0;
#X connect 5 0 11 1;
#X connect 6 0 10 1;
#X connect 7 0 8 0;
#X connect 7 0 9 0;
#X connect 8 0 10 1;
#X connect 9 0 11 1;
#X connect 10 0 24 1;
#X connect 11 0 23 1;
#X connect 17 0 18 0;
#X connect 17 1 18 1;
#X connect 18 0 19 0;
#X connect 19 0 20 0;
#X connect 19 1 20 1;
#X connect 20 0 28 0;
#X connect 22 0 6 0;
#X connect 23 0 21 0;
#X connect 24 0 12 0;
#X connect 25 0 20 0;
#X connect 26 0 18 0;
#X connect 27 0 17 0;
#X connect 28 0 11 0;
#X connect 28 0 10 0;
#X connect 29 0 4 0;
#X connect 29 1 7 0;
#X connect 29 2 30 0;
#X connect 30 0 24 0;
#X connect 30 1 23 0;
#X connect 30 2 28 0;
#X restore 97 313 pd RGB_____________;
#X floatatom 139 257 3 0 255 0 - - -, f 3;
#X floatatom 182 257 3 0 255 0 - - -, f 3;
#X floatatom 225 258 3 0 255 0 - - -, f 3;
#X text 108 202 RGB-colors;
#X text 139 239 red;
#X text 175 238 green;
#X text 223 238 blue;
#X obj 97 343 pack 0 0;
#X obj 51 86 t f b;
#X obj 51 145 i;
#X obj 149 84 t f b;
#X obj 149 143 i;
#X obj 251 82 t f b;
#X obj 251 141 i;
#X obj 259 346 outlet;
#X msg 97 376 \; inr2 color \$1 \$2;
#X msg 231 313 8 \$1;
#X msg 271 314 9 \$1;
#X msg 308 313 10 \$1;
#X connect 0 0 15 0;
#X connect 1 0 17 0;
#X connect 2 0 19 0;
#X connect 3 0 6 0;
#X connect 4 0 6 0;
#X connect 5 0 6 0;
#X connect 6 0 14 0;
#X connect 6 1 14 1;
#X connect 7 0 6 1;
#X connect 7 0 23 0;
#X connect 8 0 6 2;
#X connect 8 0 24 0;
#X connect 9 0 6 3;
#X connect 9 0 25 0;
#X connect 14 0 22 0;
#X connect 15 0 16 0;
#X connect 15 1 6 0;
#X connect 16 0 7 0;
#X connect 17 0 18 0;
#X connect 17 1 6 0;
#X connect 18 0 8 0;
#X connect 19 0 20 0;
#X connect 19 1 6 0;
#X connect 20 0 9 0;
#X connect 23 0 21 0;
#X connect 24 0 21 0;
#X connect 25 0 21 0;
#X restore 419 315 pd inr2;
#X obj 487 167 vsl 15 128 0 255 0 0 empty empty empty 0 -9 0 10 -262144
-1 -1 0 1;
#X obj 504 167 vsl 15 128 0 255 0 0 empty empty empty 0 -9 0 10 -262144
-1 -1 0 1;
#X obj 521 167 vsl 15 128 0 255 0 0 empty empty empty 0 -9 0 10 -262144
-1 -1 0 1;
#N canvas 58 227 550 400 inr3 0;
#X obj 75 21 inlet;
#X obj 150 18 inlet;
#X obj 222 19 inlet;
#X obj 41 76 t f b;
#X obj 68 134 s index;
#X obj 41 170 s value;
#X obj 41 135 i;
#X msg 68 105 1;
#X msg 87 217 back;
#X msg 87 241 label;
#X msg 49 217 bang;
#N canvas 15 207 606 448 RGB_____________ 0;
#X obj 97 56 inlet;
#X obj 262 53 inlet;
#X obj 339 55 inlet;
#X obj 405 56 inlet;
#X obj 97 270 bang;
#X msg 77 295 0;
#X msg 104 295 1;
#X obj 146 268 bang;
#X msg 132 295 0;
#X msg 160 295 1;
#X obj 265 313 spigot;
#X obj 312 313 spigot;
#X obj 249 385 outlet;
#X text 93 33 select;
#X text 267 28 red;
#X text 337 30 green;
#X text 409 30 blue;
#X obj 405 102 t b f;
#X obj 339 160 +;
#X obj 339 185 t b f;
#X obj 339 216 +;
#X obj 296 385 outlet;
#X obj 28 180 loadbang;
#X obj 296 361 f;
#X obj 249 361 f;
#X obj 262 79 * -65536;
#X obj 339 80 * -256;
#X obj 405 80 * -1;
#X obj 339 247 - 1;
#X obj 97 135 route back label bang;
#X obj 235 168 t b b b;
#X connect 0 0 29 0;
#X connect 1 0 25 0;
#X connect 2 0 26 0;
#X connect 3 0 27 0;
#X connect 4 0 5 0;
#X connect 4 0 6 0;
#X connect 5 0 11 1;
#X connect 6 0 10 1;
#X connect 7 0 8 0;
#X connect 7 0 9 0;
#X connect 8 0 10 1;
#X connect 9 0 11 1;
#X connect 10 0 24 1;
#X connect 11 0 23 1;
#X connect 17 0 18 0;
#X connect 17 1 18 1;
#X connect 18 0 19 0;
#X connect 19 0 20 0;
#X connect 19 1 20 1;
#X connect 20 0 28 0;
#X connect 22 0 6 0;
#X connect 23 0 21 0;
#X connect 24 0 12 0;
#X connect 25 0 20 0;
#X connect 26 0 18 0;
#X connect 27 0 17 0;
#X connect 28 0 11 0;
#X connect 28 0 10 0;
#X connect 29 0 4 0;
#X connect 29 1 7 0;
#X connect 29 2 30 0;
#X connect 30 0 24 0;
#X connect 30 1 23 0;
#X connect 30 2 28 0;
#X restore 87 278 pd RGB_____________;
#X floatatom 129 247 3 0 255 0 - - -, f 3;
#X floatatom 172 247 3 0 255 0 - - -, f 3;
#X floatatom 215 248 3 0 255 0 - - -, f 3;
#X text 98 192 RGB-colors;
#X text 129 229 red;
#X text 165 228 green;
#X text 213 228 blue;
#X obj 87 308 pack 0 0;
#X obj 139 74 t f b;
#X obj 166 132 s index;
#X obj 139 168 s value;
#X obj 139 133 i;
#X obj 241 72 t f b;
#X obj 268 130 s index;
#X obj 241 166 s value;
#X obj 241 131 i;
#X msg 166 103 2;
#X msg 268 101 3;
#X msg 87 341 \; inr3 color \$1 \$2;
#X connect 0 0 10 0;
#X connect 0 0 3 0;
#X connect 1 0 10 0;
#X connect 1 0 20 0;
#X connect 2 0 10 0;
#X connect 2 0 24 0;
#X connect 3 0 6 0;
#X connect 3 1 7 0;
#X connect 6 0 5 0;
#X connect 6 0 12 0;
#X connect 7 0 4 0;
#X connect 8 0 11 0;
#X connect 9 0 11 0;
#X connect 10 0 11 0;
#X connect 11 0 19 0;
#X connect 11 1 19 1;
#X connect 12 0 11 1;
#X connect 13 0 11 2;
#X connect 14 0 11 3;
#X connect 19 0 30 0;
#X connect 20 0 23 0;
#X connect 20 1 28 0;
#X connect 23 0 22 0;
#X connect 23 0 13 0;
#X connect 24 0 27 0;
#X connect 24 1 29 0;
#X connect 27 0 26 0;
#X connect 27 0 14 0;
#X connect 28 0 21 0;
#X connect 29 0 25 0;
#X restore 487 315 pd inr3;
#X obj 419 489 dmxusbpro;
#X msg 457 434 close;
#X msg 447 407 open COM3;
#X obj 459 10 r hl1;
#X floatatom 459 41 5 0 0 0 - - -, f 5;
#X obj 459 66 - 50;
#X obj 459 93 * 5;
#X floatatom 385 39 5 0 0 0 - - -, f 5;
#X obj 385 66 - 50;
#X obj 385 94 * 5;
#X obj 385 8 r hl2;
#X obj 385 123 * -1;
#X obj 459 125 * -1;
#X msg 325 57 12;
#X obj 314 13 loadbang;
#X connect 0 0 5 0;
#X connect 2 0 5 1;
#X connect 3 0 5 2;
#X connect 5 0 14 0;
#X connect 6 0 9 0;
#X connect 7 0 9 1;
#X connect 8 0 9 2;
#X connect 9 0 14 0;
#X connect 10 0 13 0;
#X connect 11 0 13 1;
#X connect 12 0 13 2;
#X connect 15 0 14 0;
#X connect 16 0 14 0;
#X connect 17 0 18 0;
#X connect 18 0 19 0;
#X connect 19 0 20 0;
#X connect 20 0 26 0;
#X connect 21 0 22 0;
#X connect 22 0 23 0;
#X connect 23 0 25 0;
#X connect 24 0 21 0;
#X connect 25 0 3 0;
#X connect 26 0 8 0;
#X connect 27 0 2 0;
#X connect 28 0 27 0;
#X coords 0 -1 1 1 200 60 1 100 100;
#X restore 260 59 pd dmx;
#N canvas 440 0 897 710 pulse 0;
#X obj 75 125 comport;
#X msg 70 58 devices;
#X msg 132 58 open 0;
#X obj 75 164 select 13 10 33;
#X obj 168 214 makefilename %c;
#X obj 75 203 bng 15 250 50 0 empty empty empty 17 7 0 10 -262144 -1
-1;
#X obj 138 281 list prepend;
#X obj 207 242 t l;
#X obj 75 315 list append;
#X obj 75 397 list2symbol;
#X msg 158 315 symbol;
#X symbolatom 158 354 10 0 0 0 - - -, f 10;
#X obj 75 436 symbol2list;
#X obj 75 475 list trim;
#X obj 75 514 s pv;
#X floatatom 136 544 5 0 0 0 - - -, f 5;
#X obj 138 626 moses 0;
#X obj 177 655 bng 15 250 50 0 empty empty empty 17 7 0 10 -262144
-1 -1;
#X obj 136 505 - 550;
#X floatatom 163 455 5 0 0 0 - - -, f 5;
#N canvas 0 0 450 300 (subpatch) 0;
#X array pvarr 1000 float 2;
#X coords 0 30 1000 -30 500 300 1 0 0;
#X restore 342 163 graph;
#X obj 235 580 tabwrite pvarr;
#X obj 352 518 f;
#X obj 381 520 + 1;
#X msg 352 479 bang;
#X floatatom 352 557 5 0 0 0 - - -, f 5;
#X obj 400 520 moses 1000;
#X msg 428 551 0;
#X msg 407 626 const 0;
#X obj 407 665 s pvarr;
#X obj 75 553 spigot;
#X msg 179 58 close;
#X connect 0 0 3 0;
#X connect 1 0 0 0;
#X connect 2 0 0 0;
#X connect 3 0 5 0;
#X connect 3 3 4 0;
#X connect 4 0 6 0;
#X connect 5 0 6 1;
#X connect 5 0 8 0;
#X connect 6 0 7 0;
#X connect 6 0 8 1;
#X connect 7 0 6 1;
#X connect 8 0 9 0;
#X connect 9 0 12 0;
#X connect 10 0 11 0;
#X connect 11 0 9 1;
#X connect 12 0 13 0;
#X connect 13 0 14 0;
#X connect 13 0 18 0;
#X connect 15 0 16 0;
#X connect 15 0 24 0;
#X connect 16 1 17 0;
#X connect 18 0 15 0;
#X connect 18 0 21 0;
#X connect 19 0 18 1;
#X connect 22 0 23 0;
#X connect 22 0 25 0;
#X connect 22 0 26 0;
#X connect 23 0 22 1;
#X connect 24 0 22 0;
#X connect 25 0 21 1;
#X connect 26 1 27 0;
#X connect 27 0 22 0;
#X connect 28 0 29 0;
#X connect 31 0 0 0;
#X restore 642 546 pd pulse;
#N canvas 203 184 1022 575 3d 0;
#X obj 161 115 delay 100;
#X msg 49 49 bang;
#X obj 29 321 gemwin;
#X msg 71 106 create;
#X msg 10 157 destroy;
#X msg 168 228 lighting 1;
#X msg 161 147 bang;
#N canvas -3 -16 792 726 model1 0;
#X msg 360 320 0;
#X obj 103 439 rotate;
#X obj 308 375 float 0;
#X obj 103 614 pix_texture;
#X obj 103 355 translateXYZ;
#X msg 262 352 0 0 1;
#X obj 307 3 inlet;
#X obj 42 484 / 100;
#X obj 118 330 / 20;
#X obj 171 305 / 20;
#X obj 197 332 / 20;
#X obj 224 261 r t1z;
#X obj 42 368 r a1;
#X msg 103 24 1;
#X msg 138 25 0;
#X obj 209 307 line;
#X obj 171 280 line;
#X msg 171 258 \$1 300;
#X obj 116 256 r t1x;
#X obj 171 237 r t1y;
#X obj 116 304 line;
#X obj 42 454 line;
#X msg 42 426 \$1 300;
#X obj 103 72 gemhead 20;
#X obj 379 374 - 0.1;
#X obj 308 353 metro 40;
#X obj 492 265 - 400;
#X obj 425 207 * 20;
#X msg 208 285 \$1 100;
#X msg 446 92 3;
#X msg 519 93 223;
#X floatatom 405 91 0 0 0 0 - - -;
#X obj 601 50 r hl1;
#X obj 601 120 *;
#X obj 617 95 r fact;
#X obj 103 534 pix_alpha;
#X obj 103 561 alpha;
#X msg 529 424 1 1 1;
#X obj 103 131 translateXYZ 2 0 0;
#X obj 601 156 / 2.5;
#X obj 601 189 * -1;
#X obj 628 132 r centerme;
#X msg 116 280 \$1 600;
#X obj 103 669 sphere 1 30;
#X obj 103 471 pix_image models/geoblau.jpg;
#X connect 0 0 24 0;
#X connect 0 0 25 0;
#X connect 1 0 44 0;
#X connect 2 0 1 1;
#X connect 2 0 24 0;
#X connect 3 0 43 0;
#X connect 4 0 1 0;
#X connect 5 0 1 2;
#X connect 6 0 25 0;
#X connect 6 0 29 0;
#X connect 6 0 30 0;
#X connect 6 0 5 0;
#X connect 6 0 31 0;
#X connect 6 0 37 0;
#X connect 7 0 35 1;
#X connect 8 0 4 1;
#X connect 9 0 4 2;
#X connect 10 0 4 3;
#X connect 11 0 28 0;
#X connect 12 0 22 0;
#X connect 13 0 23 0;
#X connect 14 0 23 0;
#X connect 15 0 10 0;
#X connect 16 0 9 0;
#X connect 17 0 16 0;
#X connect 18 0 42 0;
#X connect 19 0 17 0;
#X connect 20 0 8 0;
#X connect 21 0 7 0;
#X connect 22 0 21 0;
#X connect 23 0 38 0;
#X connect 24 0 2 1;
#X connect 25 0 2 0;
#X connect 26 0 28 0;
#X connect 27 0 26 0;
#X connect 28 0 15 0;
#X connect 29 0 27 1;
#X connect 30 0 26 1;
#X connect 31 0 27 0;
#X connect 32 0 33 0;
#X connect 33 0 27 0;
#X connect 33 0 39 0;
#X connect 34 0 33 1;
#X connect 35 0 36 0;
#X connect 36 0 3 0;
#X connect 37 0 35 3;
#X connect 38 0 4 0;
#X connect 39 0 40 0;
#X connect 40 0 42 0;
#X connect 41 0 39 1;
#X connect 42 0 20 0;
#X connect 44 0 35 0;
#X restore 282 349 pd model1;
#N canvas 302 47 712 603 worldlights 0;
#X obj 58 17 gemhead 1;
#X obj 58 152 rotateXYZ;
#X msg 94 388 debug 0;
#X msg 85 356 debug 1;
#X obj 42 500 world_light;
#X obj 58 329 translateXYZ;
#X obj 77 64 r rxl1;
#X obj 128 64 r ryl1;
#X obj 181 64 r rzl1;
#X obj 84 187 r txl1;
#X obj 135 187 r tyl1;
#X obj 187 187 r tzl1;
#X obj 84 295 / 20;
#X obj 118 295 / 20;
#X obj 155 294 / 20;
#X floatatom 84 250 0 0 0 0 - - -;
#X floatatom 118 250 0 0 0 0 - - -;
#X floatatom 155 251 0 0 0 0 - - -;
#X floatatom 77 106 0 0 0 0 - - -;
#X floatatom 111 106 0 0 0 0 - - -;
#X floatatom 148 107 0 0 0 0 - - -;
#X obj 302 152 rotateXYZ;
#X obj 324 511 world_light;
#X obj 302 329 translateXYZ;
#X obj 328 295 / 20;
#X obj 362 295 / 20;
#X obj 399 294 / 20;
#X floatatom 328 250 0 0 0 0 - - -;
#X floatatom 362 250 0 0 0 0 - - -;
#X floatatom 399 251 0 0 0 0 - - -;
#X floatatom 321 106 0 0 0 0 - - -;
#X floatatom 355 106 0 0 0 0 - - -;
#X floatatom 392 107 0 0 0 0 - - -;
#X obj 321 64 r rxl2;
#X obj 372 64 r ryl2;
#X obj 425 64 r rzl2;
#X obj 328 187 r txl2;
#X obj 379 187 r tyl2;
#X obj 431 187 r tzl2;
#X obj 563 154 rotateXYZ;
#X obj 523 517 world_light;
#X obj 563 331 translateXYZ;
#X obj 589 297 / 20;
#X obj 623 297 / 20;
#X obj 660 296 / 20;
#X floatatom 589 252 0 0 0 0 - - -;
#X floatatom 623 252 0 0 0 0 - - -;
#X floatatom 660 253 0 0 0 0 - - -;
#X floatatom 582 108 0 0 0 0 - - -;
#X floatatom 616 108 0 0 0 0 - - -;
#X floatatom 653 109 0 0 0 0 - - -;
#X obj 582 66 r rxl3;
#X obj 633 66 r ryl3;
#X obj 686 66 r rzl3;
#X obj 589 189 r txl3;
#X obj 640 189 r tyl3;
#X obj 692 189 r tzl3;
#X msg 338 383 debug 0;
#X msg 332 352 debug 1;
#X msg 587 394 debug 0;
#X msg 578 362 debug 1;
#X obj 231 372 inlet;
#X obj 563 19 gemhead 1;
#X obj 302 17 gemhead 1;
#X msg 202 456 0.3 0.3 0.4;
#X msg 200 409 0.5 0.5 0.5;
#X msg 197 431 0.4 0.4 0.4;
#X connect 0 0 1 0;
#X connect 1 0 5 0;
#X connect 2 0 4 0;
#X connect 3 0 4 0;
#X connect 5 0 4 0;
#X connect 6 0 18 0;
#X connect 7 0 19 0;
#X connect 8 0 20 0;
#X connect 9 0 15 0;
#X connect 10 0 16 0;
#X connect 11 0 17 0;
#X connect 12 0 5 1;
#X connect 13 0 5 2;
#X connect 14 0 5 3;
#X connect 15 0 12 0;
#X connect 16 0 13 0;
#X connect 17 0 14 0;
#X connect 18 0 1 1;
#X connect 19 0 1 2;
#X connect 20 0 1 3;
#X connect 21 0 23 0;
#X connect 23 0 22 0;
#X connect 24 0 23 1;
#X connect 25 0 23 2;
#X connect 26 0 23 3;
#X connect 27 0 24 0;
#X connect 28 0 25 0;
#X connect 29 0 26 0;
#X connect 30 0 21 1;
#X connect 31 0 21 2;
#X connect 32 0 21 3;
#X connect 33 0 30 0;
#X connect 34 0 31 0;
#X connect 35 0 32 0;
#X connect 36 0 27 0;
#X connect 37 0 28 0;
#X connect 38 0 29 0;
#X connect 39 0 41 0;
#X connect 41 0 40 0;
#X connect 42 0 41 1;
#X connect 43 0 41 2;
#X connect 44 0 41 3;
#X connect 45 0 42 0;
#X connect 46 0 43 0;
#X connect 47 0 44 0;
#X connect 48 0 39 1;
#X connect 49 0 39 2;
#X connect 50 0 39 3;
#X connect 51 0 48 0;
#X connect 52 0 49 0;
#X connect 53 0 50 0;
#X connect 54 0 45 0;
#X connect 55 0 46 0;
#X connect 56 0 47 0;
#X connect 57 0 22 0;
#X connect 58 0 22 0;
#X connect 59 0 40 0;
#X connect 60 0 40 0;
#X connect 61 0 4 0;
#X connect 61 0 40 0;
#X connect 61 0 22 0;
#X connect 61 0 65 0;
#X connect 61 0 66 0;
#X connect 61 0 64 0;
#X connect 62 0 39 0;
#X connect 63 0 21 0;
#X connect 64 0 40 1;
#X connect 65 0 4 1;
#X connect 66 0 22 1;
#X restore 228 479 pd worldlights;
#X msg 282 318 bang;
#X msg 320 318 0;
#X msg 83 198 1;
#N canvas 16 74 704 486 weissrt 0;
#X obj 70 464 light;
#X obj 123 117 metro 39;
#X obj 26 7 inlet;
#X text 132 366 farbe;
#X obj 254 466 light;
#X text 313 463 farbe;
#X obj 307 123 metro 30;
#X obj 254 190 rotate 1.2 0.3 0;
#X text 513 419 farbe;
#X obj 452 475 light;
#X obj 452 184 rotate 2.3 0 2.5;
#X obj 505 117 metro 41;
#X obj 26 37 s go;
#X obj 87 383 r go;
#X obj 175 49 r go;
#X obj 327 80 r go;
#X obj 273 396 r go;
#X obj 471 414 r go;
#X obj 524 86 r go;
#X msg 178 430 debug 0;
#X msg 194 374 debug 1;
#X msg 15 365 debug 0;
#X msg -7 337 debug 1;
#X msg 351 398 debug 0;
#X msg 382 340 debug 1;
#X obj 70 311 translateXYZ;
#X obj 91 281 / 20;
#X obj 126 281 / 20;
#X obj 160 281 / 20;
#X obj 91 211 r txr1;
#X obj 160 211 r tzr1;
#X obj 112 239 r tyr1;
#X obj 254 318 translateXYZ;
#X obj 452 311 translateXYZ;
#X obj 273 285 / 20;
#X obj 308 285 / 20;
#X obj 342 285 / 20;
#X obj 470 280 / 20;
#X obj 505 280 / 20;
#X obj 539 280 / 20;
#X obj 273 215 r txr2;
#X obj 294 243 r tyr2;
#X obj 342 215 r tzr2;
#X obj 470 210 r txr3;
#X obj 491 238 r tyr3;
#X obj 539 210 r tzr3;
#X msg 201 79 1;
#X obj 70 184 rotate;
#X msg 163 176 0 1 0;
#X msg 80 353 0;
#X msg 266 355 0;
#X msg 470 371 0;
#X obj 70 82 gemhead 2;
#X obj 254 81 gemhead 2;
#X obj 452 85 gemhead 2;
#X msg 100 429 1 1 1;
#X msg 284 435 1 1 1;
#X msg 482 445 1 1 1;
#X obj 123 151 float 0;
#X obj 185 149 - 0.2;
#X obj 307 157 float 0;
#X obj 369 155 + 0.2;
#X obj 505 151 float 0;
#X obj 567 149 + 0.2;
#X connect 1 0 58 0;
#X connect 2 0 12 0;
#X connect 6 0 60 0;
#X connect 7 0 32 0;
#X connect 10 0 33 0;
#X connect 11 0 62 0;
#X connect 13 0 0 0;
#X connect 13 0 55 0;
#X connect 14 0 48 0;
#X connect 14 0 46 0;
#X connect 16 0 4 0;
#X connect 16 0 56 0;
#X connect 17 0 9 0;
#X connect 17 0 57 0;
#X connect 19 0 4 0;
#X connect 20 0 4 0;
#X connect 21 0 0 0;
#X connect 22 0 0 0;
#X connect 23 0 9 0;
#X connect 24 0 9 0;
#X connect 25 0 0 0;
#X connect 26 0 25 1;
#X connect 27 0 25 2;
#X connect 28 0 25 3;
#X connect 29 0 26 0;
#X connect 30 0 28 0;
#X connect 31 0 27 0;
#X connect 32 0 4 0;
#X connect 33 0 9 0;
#X connect 34 0 32 1;
#X connect 35 0 32 2;
#X connect 36 0 32 3;
#X connect 37 0 33 1;
#X connect 38 0 33 2;
#X connect 39 0 33 3;
#X connect 40 0 34 0;
#X connect 41 0 35 0;
#X connect 42 0 36 0;
#X connect 43 0 37 0;
#X connect 44 0 38 0;
#X connect 45 0 39 0;
#X connect 46 0 1 0;
#X connect 46 0 6 0;
#X connect 46 0 11 0;
#X connect 47 0 25 0;
#X connect 48 0 47 2;
#X connect 49 0 0 0;
#X connect 50 0 4 0;
#X connect 51 0 9 0;
#X connect 52 0 47 0;
#X connect 53 0 7 0;
#X connect 54 0 10 0;
#X connect 55 0 0 1;
#X connect 56 0 4 1;
#X connect 57 0 9 1;
#X connect 58 0 47 1;
#X connect 58 0 59 0;
#X connect 59 0 58 1;
#X connect 60 0 7 1;
#X connect 60 0 61 0;
#X connect 61 0 60 1;
#X connect 62 0 10 1;
#X connect 62 0 63 0;
#X connect 63 0 62 1;
#X restore 135 480 pd weissrt;
#X msg 268 430 1;
#X msg 228 431 0;
#X msg 135 437 0;
#X msg 91 436 1;
#X obj 800 309 r puls;
#N canvas 602 66 464 465 pulslicht 0;
#X obj 70 464 light;
#X obj 178 116 metro 39;
#X obj 26 7 inlet;
#X text 132 366 farbe;
#X msg 15 365 debug 0;
#X msg -7 337 debug 1;
#X obj 70 311 translateXYZ;
#X obj 275 240 / 20;
#X obj 310 240 / 20;
#X obj 344 240 / 20;
#X msg 217 83 1;
#X obj 70 184 rotate;
#X msg 228 165 0 1 0;
#X msg 80 353 0;
#X obj 123 151 float 0;
#X msg 100 429 1 0 0;
#X floatatom 304 189 0 0 0 0 - - -;
#X floatatom 341 187 0 0 0 0 - - -;
#X floatatom 379 188 0 0 0 0 - - -;
#X msg 250 422 0 0 1;
#X obj 70 82 gemhead 6;
#X obj 26 37 s gopuls;
#X obj 87 383 r gopuls;
#X obj 185 149 - 1;
#X obj 284 48 r startit;
#X msg 280 164 50;
#X msg 315 163 52;
#X msg 353 162 66;
#X connect 1 0 14 0;
#X connect 2 0 21 0;
#X connect 4 0 0 0;
#X connect 5 0 0 0;
#X connect 6 0 0 0;
#X connect 7 0 6 1;
#X connect 8 0 6 2;
#X connect 9 0 6 3;
#X connect 10 0 1 0;
#X connect 11 0 6 0;
#X connect 12 0 11 2;
#X connect 13 0 0 0;
#X connect 14 0 11 1;
#X connect 14 0 23 0;
#X connect 15 0 0 1;
#X connect 16 0 7 0;
#X connect 17 0 8 0;
#X connect 18 0 9 0;
#X connect 19 0 0 1;
#X connect 20 0 11 0;
#X connect 22 0 0 0;
#X connect 23 0 14 1;
#X connect 24 0 25 0;
#X connect 24 0 26 0;
#X connect 24 0 27 0;
#X connect 24 0 10 0;
#X connect 24 0 12 0;
#X connect 24 0 15 0;
#X connect 25 0 7 0;
#X connect 26 0 8 0;
#X connect 27 0 9 0;
#X restore 793 469 pd pulslicht;
#X msg 793 415 1;
#X obj 840 393 delay 100;
#X msg 793 351 bang;
#X msg 840 420 0;
#X obj 68 73 send startit;
#X obj 91 390 r startit;
#X obj 282 259 r startit;
#X obj 793 255 metro 500;
#X obj 793 197 tgl 15 0 empty empty empty 0 -6 0 8 -262144 -1 -1 0
1;
#X obj 491 138 vsl 15 128 0 100 0 0 a1 empty alpha 0 -9 0 10 -262144
-1 -1 12700 1;
#X msg 133 281 dimen 600 400;
#X obj 313 180 tgl 15 0 empty empty empty 17 7 0 10 -262144 -1 -1 0
1;
#X msg 313 209 fullscreen \$1;
#X msg 193 189 cursor \$1;
#X obj 193 170 tgl 15 0 empty empty empty 0 -6 0 10 -262144 -1 -1 0
1;
#X obj 555 161 * 1.5;
#X floatatom 555 122 5 0 0 0 - - -, f 5;
#X obj 555 196 s fact;
#X msg 361 318 bang;
#X msg 399 318 0;
#N canvas 274 39 911 704 modellinks 0;
#X msg 323 332 0;
#X obj 69 449 rotate;
#X obj 289 386 float 0;
#X obj 69 638 pix_texture;
#X obj 69 384 translateXYZ;
#X msg 243 381 0 0 1;
#X obj 246 -1 inlet;
#X obj 9 535 / 100;
#X obj 86 359 / 20;
#X obj 139 334 / 20;
#X obj 165 361 / 20;
#X obj 192 290 r t1z;
#X obj 9 450 r a1;
#X msg 68 -39 1;
#X msg 103 -38 0;
#X obj 177 336 line;
#X obj 139 309 line;
#X msg 139 287 \$1 300;
#X obj 84 285 r t1x;
#X obj 139 266 r t1y;
#X obj 84 333 line;
#X obj 9 505 line;
#X msg 9 477 \$1 300;
#X obj 68 9 gemhead 20;
#X obj 343 385 - 0.1;
#X obj 289 364 metro 40;
#X obj 356 190 - 400;
#X obj 357 164 * 20;
#X msg 176 314 \$1 100;
#X msg 395 90 3;
#X msg 445 85 223;
#X floatatom 358 88 0 0 0 0 - - -;
#X obj 570 116 *;
#X obj 610 94 r fact;
#X obj 570 46 r hl2;
#X obj 69 581 pix_alpha;
#X obj 69 612 alpha;
#X msg 465 471 1 1 1;
#X obj 68 35 translateXYZ -2 0 0;
#X obj 570 186 / 2.5;
#X obj 628 142 r centerme;
#X msg 84 309 \$1 600;
#X obj 69 671 sphere 1 30;
#X obj 69 488 pix_image models/geogelb.jpg;
#X connect 0 0 24 0;
#X connect 0 0 25 0;
#X connect 1 0 43 0;
#X connect 2 0 1 1;
#X connect 2 0 24 0;
#X connect 3 0 42 0;
#X connect 4 0 1 0;
#X connect 5 0 1 2;
#X connect 6 0 25 0;
#X connect 6 0 29 0;
#X connect 6 0 30 0;
#X connect 6 0 5 0;
#X connect 6 0 31 0;
#X connect 6 0 37 0;
#X connect 7 0 35 1;
#X connect 8 0 4 1;
#X connect 9 0 4 2;
#X connect 10 0 4 3;
#X connect 11 0 28 0;
#X connect 12 0 22 0;
#X connect 13 0 23 0;
#X connect 14 0 23 0;
#X connect 15 0 10 0;
#X connect 16 0 9 0;
#X connect 17 0 16 0;
#X connect 18 0 41 0;
#X connect 19 0 17 0;
#X connect 20 0 8 0;
#X connect 21 0 7 0;
#X connect 22 0 21 0;
#X connect 23 0 38 0;
#X connect 24 0 2 1;
#X connect 25 0 2 0;
#X connect 26 0 28 0;
#X connect 27 0 26 0;
#X connect 28 0 15 0;
#X connect 29 0 27 1;
#X connect 30 0 26 1;
#X connect 31 0 27 0;
#X connect 32 0 27 0;
#X connect 32 0 39 0;
#X connect 33 0 32 1;
#X connect 34 0 32 0;
#X connect 35 0 36 0;
#X connect 36 0 3 0;
#X connect 37 0 35 3;
#X connect 38 0 4 0;
#X connect 39 0 41 0;
#X connect 40 0 39 1;
#X connect 41 0 20 0;
#X connect 43 0 35 0;
#X restore 361 349 pd modellinks;
#X obj 555 61 loadbang;
#X msg 555 95 1;
#X floatatom 625 128 5 0 0 0 - - -, f 5;
#X msg 625 101 2.4;
#X obj 625 198 s centerme;
#X msg 476 99 100;
#X obj 10 -16 inlet;
#X obj 10 11 route 0;
#X msg 96 156 bang;
#N canvas 386 100 600 489 pulsecontrol 0;
#X obj 367 348 invert;
#X floatatom 367 294 0 0 0 0 - - -;
#X floatatom 367 238 0 0 0 0 - - -;
#X msg 312 118 0;
#X msg 312 77 bang;
#X floatatom 367 182 0 0 0 0 - - -;
#X obj 367 154 int 0;
#X obj 409 155 + 1;
#X obj 267 226 send puls;
#X obj 367 126 metro 1000;
#X msg 367 96 0;
#X obj 408 266 + 1;
#X obj 367 266 int 0;
#X obj 367 374 s timeout;
#X obj 207 311 send pulsoff;
#X obj 367 14 r timeout;
#X msg 367 65 bang;
#X obj 207 281 delay 140;
#X obj 367 319 change;
#X text 397 207 Time Out in Seconds;
#X obj 367 40 invert;
#X text 436 363 timeout=0: stop;
#X text 436 381 timeout=1: go;
#X obj 367 210 > 3;
#X floatatom 162 65 0 0 0 0 - - -;
#X obj 177 25 ctlin 1 3;
#X connect 0 0 13 0;
#X connect 1 0 18 0;
#X connect 2 0 12 0;
#X connect 3 0 6 0;
#X connect 4 0 3 0;
#X connect 4 0 9 0;
#X connect 4 0 8 0;
#X connect 4 0 17 0;
#X connect 5 0 23 0;
#X connect 6 0 5 0;
#X connect 6 0 7 0;
#X connect 7 0 6 1;
#X connect 9 0 6 0;
#X connect 10 0 9 0;
#X connect 11 0 12 1;
#X connect 12 0 11 0;
#X connect 12 0 1 0;
#X connect 15 0 20 0;
#X connect 16 0 10 0;
#X connect 17 0 14 0;
#X connect 18 0 0 0;
#X connect 20 0 16 0;
#X connect 23 0 2 0;
#X connect 25 0 24 0;
#X connect 25 0 4 0;
#X restore 791 164 pd pulsecontrol;
#X text 311 153 click here for fullscreen;
#X text 791 128 optional feedback of pulse sensor;
#X connect 0 0 6 0;
#X connect 1 0 3 0;
#X connect 1 0 23 0;
#X connect 3 0 2 0;
#X connect 3 0 48 0;
#X connect 4 0 2 0;
#X connect 5 0 2 0;
#X connect 6 0 5 0;
#X connect 6 0 11 0;
#X connect 6 0 29 0;
#X connect 9 0 7 0;
#X connect 10 0 7 0;
#X connect 11 0 2 0;
#X connect 13 0 8 0;
#X connect 14 0 8 0;
#X connect 15 0 12 0;
#X connect 16 0 12 0;
#X connect 17 0 21 0;
#X connect 19 0 18 0;
#X connect 20 0 22 0;
#X connect 21 0 20 0;
#X connect 21 0 19 0;
#X connect 22 0 18 0;
#X connect 24 0 16 0;
#X connect 25 0 9 0;
#X connect 25 0 37 0;
#X connect 26 0 21 0;
#X connect 27 0 26 0;
#X connect 29 0 2 0;
#X connect 30 0 31 0;
#X connect 31 0 2 0;
#X connect 32 0 2 0;
#X connect 33 0 32 0;
#X connect 34 0 36 0;
#X connect 35 0 34 0;
#X connect 37 0 39 0;
#X connect 38 0 39 0;
#X connect 40 0 41 0;
#X connect 40 0 43 0;
#X connect 40 0 45 0;
#X connect 41 0 35 0;
#X connect 42 0 44 0;
#X connect 43 0 42 0;
#X connect 45 0 28 0;
#X connect 46 0 47 0;
#X connect 47 0 4 0;
#X connect 47 1 1 0;
#X connect 48 0 0 0;
#X restore 553 99 pd 3d;
#X floatatom 476 356 5 0 0 0 - - -, f 5;
#X obj 342 500 makenote 60 127 100;
#X floatatom 476 445 5 0 0 0 - - -, f 5;
#X obj 342 323 tgl 15 0 empty empty empty 17 7 0 10 -262144 -1 -1 0
1;
#X floatatom 202 343 5 0 0 0 - - -, f 5;
#X obj 77 501 makenote 60 127 100;
#X floatatom 202 434 5 0 0 0 - - -, f 5;
#X obj 77 306 tgl 15 0 empty empty empty 17 7 0 10 -262144 -1 -1 0
1;
#X msg 77 442 60;
#X obj 77 540 noteout 1;
#X obj 342 539 noteout 2;
#X msg 342 440 64;
#X obj 658 316 vsl 15 128 0 72 0 0 hl1 empty hl1 0 -9 0 10 -262144
-1 -1 0 1;
#X obj 688 316 vsl 15 128 0 72 0 0 hl2 empty hl2 0 -9 0 10 -262144
-1 -1 0 1;
#X text 653 279 test;
#X obj 30 115 tgl 20 0 empty empty empty 17 7 0 10 -262144 -13381 -1
1 1;
#X msg 30 92 1;
#X obj 30 57 loadbang;
#X obj 553 72 tgl 15 0 empty empty empty 17 7 0 10 -262144 -1 -1 0
1;
#X obj 202 399 * 7;
#X obj 202 372 - 48;
#X obj 476 383 - 48;
#X obj 476 410 * 7;
#X obj 77 399 metro 900;
#N canvas 365 122 662 589 calibgasp 0;
#X obj 9 3 bng 15 250 50 0 empty empty empty 17 7 0 10 -262144 -1 -1
;
#X floatatom 116 168 0 0 0 0 - - -;
#X obj 9 117 float;
#X obj 63 117 - 1;
#X msg 68 29 23;
#X obj 9 30 t b b;
#X msg 9 61 1;
#X msg 33 168 0;
#X obj 5 224 sel 0;
#X obj 9 91 metro 1000;
#X obj 482 12 adc~ 1;
#X floatatom 482 88 5 0 0 0 - - -, f 5;
#X obj 482 42 env~ 16000;
#X obj 482 115 moses 40;
#X obj 5 264 bng 15 250 50 0 empty empty empty 17 7 0 10 -262144 -1
-1;
#X obj 526 184 once;
#X msg 436 80 50;
#X msg 548 151 1;
#X msg 5 291 \; block1 0;
#X obj 115 127 tgl 30 0 block1 block1 empty 17 7 0 10 -262144 -258113
-1 0 1;
#X obj 9 -68 r block1;
#X obj 9 -36 sel 1;
#X obj 233 -9 bng 15 250 50 0 empty empty empty 17 7 0 10 -262144 -1
-1;
#X floatatom 157 167 0 0 0 0 - - -;
#X obj 233 106 float;
#X obj 287 106 - 1;
#X msg 292 18 23;
#X obj 233 19 t b b;
#X msg 233 50 1;
#X msg 293 168 0;
#X obj 215 220 sel 0;
#X obj 233 80 metro 1000;
#X obj 215 259 bng 15 250 50 0 empty empty empty 17 7 0 10 -262144
-1 -1;
#X obj 158 127 tgl 30 0 block2 block2 empty 17 7 0 10 -262144 -258113
-1 0 1;
#X obj 233 -37 sel 1;
#X obj 233 -69 r block2;
#X msg 215 286 \; block2 0;
#X msg 405 258 \; ruhelicht 1;
#X msg 535 257 \; ruhelicht 0;
#X obj 405 301 once;
#X obj 405 325 t b;
#X obj 405 353 del 5000;
#X msg 441 301 1;
#X obj 535 300 once;
#X obj 535 324 t b;
#X obj 535 352 del 5000;
#X msg 571 300 1;
#X connect 0 0 5 0;
#X connect 1 0 8 0;
#X connect 2 0 3 0;
#X connect 3 0 1 0;
#X connect 3 0 2 1;
#X connect 4 0 2 1;
#X connect 5 0 6 0;
#X connect 5 1 4 0;
#X connect 6 0 9 0;
#X connect 7 0 9 0;
#X connect 8 0 7 0;
#X connect 8 0 14 0;
#X connect 9 0 2 0;
#X connect 10 0 12 0;
#X connect 11 0 13 0;
#X connect 12 0 11 0;
#X connect 13 0 17 0;
#X connect 13 1 15 0;
#X connect 14 0 18 0;
#X connect 16 0 13 0;
#X connect 17 0 15 1;
#X connect 20 0 21 0;
#X connect 21 0 0 0;
#X connect 22 0 27 0;
#X connect 23 0 30 0;
#X connect 24 0 25 0;
#X connect 25 0 23 0;
#X connect 25 0 24 1;
#X connect 26 0 24 1;
#X connect 27 0 28 0;
#X connect 27 1 26 0;
#X connect 28 0 31 0;
#X connect 29 0 31 0;
#X connect 30 0 29 0;
#X connect 30 0 32 0;
#X connect 31 0 24 0;
#X connect 32 0 36 0;
#X connect 34 0 22 0;
#X connect 35 0 34 0;
#X connect 37 0 39 0;
#X connect 38 0 43 0;
#X connect 39 0 40 0;
#X connect 40 0 41 0;
#X connect 41 0 42 0;
#X connect 42 0 39 1;
#X connect 43 0 44 0;
#X connect 44 0 45 0;
#X connect 45 0 46 0;
#X connect 46 0 43 1;
#X coords 0 -1 1 1 100 100 1 100 100;
#X restore 770 459 pd calibgasp;
#X obj 77 265 r block1;
#X obj 342 265 r block2;
#X obj 342 393 metro 900;
#X obj 342 297 invert;
#X obj 77 284 invert;
#X obj 847 287 s fact;
#X floatatom 847 250 5 0 0 0 - - -, f 5;
#X obj 847 110 vsl 15 128 0 3 0 0 empty empty empty 0 -9 0 10 -262144
-1 -1 6350 1;
#X obj 847 39 loadbang;
#X msg 847 73 1.5;
#X obj 128 344 random 300;
#X obj 393 343 random 300;
#X obj 128 371 + 900;
#X obj 393 370 + 900;
#X obj 202 578 ctlout 7 1;
#X obj 476 581 ctlout 7 2;
#X floatatom 202 553 5 0 0 0 - - -, f 5;
#X obj 202 529 line;
#X msg 202 502 \$1 2000;
#X obj 476 528 line;
#X msg 476 504 \$1 2000;
#X floatatom 476 556 5 0 0 0 - - -, f 5;
#X text 259 33 dmx lightning control;
#X text 766 410 optional: disable show;
#X text 767 429 while sensors are calibrating;
#X text 549 50 activate 3d graphics;
#X connect 1 0 10 0;
#X connect 2 0 6 0;
#X connect 6 0 27 0;
#X connect 7 0 16 0;
#X connect 7 1 16 1;
#X connect 8 0 7 1;
#X connect 8 0 51 0;
#X connect 9 0 33 0;
#X connect 10 0 26 0;
#X connect 11 0 15 0;
#X connect 11 1 15 1;
#X connect 12 0 11 1;
#X connect 12 0 49 0;
#X connect 13 0 29 0;
#X connect 14 0 11 0;
#X connect 17 0 7 0;
#X connect 21 0 0 0;
#X connect 22 0 21 0;
#X connect 23 0 22 0;
#X connect 24 0 5 0;
#X connect 25 0 12 0;
#X connect 26 0 25 0;
#X connect 27 0 28 0;
#X connect 28 0 8 0;
#X connect 29 0 14 0;
#X connect 29 0 41 0;
#X connect 31 0 35 0;
#X connect 32 0 34 0;
#X connect 33 0 17 0;
#X connect 33 0 42 0;
#X connect 34 0 9 0;
#X connect 35 0 13 0;
#X connect 37 0 36 0;
#X connect 38 0 37 0;
#X connect 39 0 40 0;
#X connect 40 0 38 0;
#X connect 41 0 43 0;
#X connect 42 0 44 0;
#X connect 43 0 29 1;
#X connect 44 0 33 1;
#X connect 47 0 45 0;
#X connect 48 0 47 0;
#X connect 49 0 48 0;
#X connect 50 0 52 0;
#X connect 51 0 50 0;
#X connect 52 0 46 0;
